<mxfile host="Electron" modified="2023-11-02T06:30:19.392Z" agent="Mozilla/5.0 (Windows NT 10.0; Win64; x64) AppleWebKit/537.36 (KHTML, like Gecko) draw.io/21.7.5 Chrome/114.0.5735.289 Electron/25.8.1 Safari/537.36" etag="1UND0mevm7TTNI4Uwaxh" version="21.7.5" type="device">
  <diagram name="PÃ¡gina-1" id="UOuzWutej9CkiirfJg8X">
    <mxGraphModel dx="4049" dy="1720" grid="0" gridSize="10" guides="1" tooltips="1" connect="1" arrows="1" fold="1" page="1" pageScale="1" pageWidth="1169" pageHeight="826" background="#FFFFFF" math="0" shadow="0">
      <root>
        <mxCell id="0" />
        <mxCell id="1" parent="0" />
        <mxCell id="UsIp33hUrjIsSwBAMLS7-2" value="" style="edgeStyle=orthogonalEdgeStyle;rounded=0;orthogonalLoop=1;jettySize=auto;html=1;" parent="1" source="2LraSfVMXyIJ4m1ZJqNp-1" target="UsIp33hUrjIsSwBAMLS7-1" edge="1">
          <mxGeometry relative="1" as="geometry" />
        </mxCell>
        <mxCell id="VymyQt9emQp_qHSCCe4n-3" style="edgeStyle=elbowEdgeStyle;rounded=1;orthogonalLoop=1;jettySize=auto;html=1;exitX=0.5;exitY=1;exitDx=0;exitDy=0;elbow=vertical;entryX=1;entryY=0.5;entryDx=0;entryDy=0;strokeColor=#000000;strokeWidth=4;" edge="1" parent="1" source="2LraSfVMXyIJ4m1ZJqNp-1" target="2LraSfVMXyIJ4m1ZJqNp-2">
          <mxGeometry relative="1" as="geometry">
            <mxPoint x="-223" y="448" as="targetPoint" />
            <Array as="points">
              <mxPoint x="-287" y="389" />
            </Array>
          </mxGeometry>
        </mxCell>
        <mxCell id="VymyQt9emQp_qHSCCe4n-6" style="edgeStyle=orthogonalEdgeStyle;shape=connector;rounded=1;orthogonalLoop=1;jettySize=auto;html=1;exitX=0.5;exitY=0;exitDx=0;exitDy=0;entryX=1;entryY=0.5;entryDx=0;entryDy=0;labelBackgroundColor=default;strokeColor=#000000;strokeWidth=4;fontFamily=Helvetica;fontSize=11;fontColor=default;endArrow=classic;" edge="1" parent="1" source="2LraSfVMXyIJ4m1ZJqNp-1" target="VymyQt9emQp_qHSCCe4n-5">
          <mxGeometry relative="1" as="geometry" />
        </mxCell>
        <mxCell id="2LraSfVMXyIJ4m1ZJqNp-1" value="&lt;font color=&quot;#000000&quot;&gt;&lt;font style=&quot;font-size: 21px;&quot;&gt;Estado 1:&lt;/font&gt;&lt;font style=&quot;font-size: 35px;&quot;&gt;&amp;nbsp;espera&lt;br&gt;&lt;ul&gt;&lt;li style=&quot;font-size: 21px;&quot;&gt;celdas[&amp;lt;= i] = asignadas&lt;/li&gt;&lt;li style=&quot;font-size: 21px;&quot;&gt;autos = i&lt;/li&gt;&lt;/ul&gt;&lt;/font&gt;&lt;/font&gt;" style="ellipse;whiteSpace=wrap;html=1;aspect=fixed;direction=west;fillColor=#dae8fc;strokeColor=#6c8ebf;align=center;" parent="1" vertex="1">
          <mxGeometry x="-564" y="666.04" width="289" height="289" as="geometry" />
        </mxCell>
        <mxCell id="VymyQt9emQp_qHSCCe4n-8" style="edgeStyle=orthogonalEdgeStyle;shape=connector;rounded=1;orthogonalLoop=1;jettySize=auto;html=1;exitX=1;exitY=0;exitDx=0;exitDy=0;entryX=0;entryY=1;entryDx=0;entryDy=0;labelBackgroundColor=default;strokeColor=#000000;strokeWidth=4;fontFamily=Helvetica;fontSize=11;fontColor=default;endArrow=classic;" edge="1" parent="1" source="2LraSfVMXyIJ4m1ZJqNp-2" target="2LraSfVMXyIJ4m1ZJqNp-1">
          <mxGeometry relative="1" as="geometry" />
        </mxCell>
        <mxCell id="2LraSfVMXyIJ4m1ZJqNp-2" value="&lt;font style=&quot;&quot; color=&quot;#000000&quot;&gt;&lt;font style=&quot;font-size: 21px;&quot;&gt;Estado 2:&lt;/font&gt;&lt;span style=&quot;font-size: 30px;&quot;&gt;&amp;nbsp;&lt;/span&gt;&lt;font style=&quot;font-size: 35px;&quot;&gt;a&lt;/font&gt;&lt;font style=&quot;font-size: 35px;&quot;&gt;lmacenar&lt;/font&gt;&lt;br&gt;&lt;ul style=&quot;font-size: 21px;&quot;&gt;&lt;li&gt;&lt;span style=&quot;&quot;&gt;celda [i+1] = asigna&lt;/span&gt;&lt;/li&gt;&lt;li&gt;autos = i+1&lt;/li&gt;&lt;/ul&gt;&lt;/font&gt;" style="ellipse;whiteSpace=wrap;html=1;aspect=fixed;direction=west;fillColor=#dae8fc;strokeColor=#6c8ebf;align=center;" parent="1" vertex="1">
          <mxGeometry x="-167" y="246" width="286" height="286" as="geometry" />
        </mxCell>
        <mxCell id="UsIp33hUrjIsSwBAMLS7-3" style="edgeStyle=orthogonalEdgeStyle;rounded=1;orthogonalLoop=1;jettySize=auto;html=1;exitX=0;exitY=0.5;exitDx=0;exitDy=0;entryX=1;entryY=0.5;entryDx=0;entryDy=0;strokeColor=#000000;strokeWidth=4;" parent="1" source="UsIp33hUrjIsSwBAMLS7-1" target="2LraSfVMXyIJ4m1ZJqNp-1" edge="1">
          <mxGeometry relative="1" as="geometry" />
        </mxCell>
        <mxCell id="UsIp33hUrjIsSwBAMLS7-1" value="&lt;font color=&quot;#000000&quot;&gt;&lt;font style=&quot;font-size: 21px;&quot;&gt;Estado 0:&lt;/font&gt;&lt;font style=&quot;font-size: 35px;&quot;&gt; inicio&lt;br&gt;&lt;/font&gt;&lt;/font&gt;&lt;ul style=&quot;color: rgb(0, 0, 0);&quot;&gt;&lt;li&gt;&lt;font color=&quot;#000000&quot;&gt;&lt;font style=&quot;font-size: 21px;&quot;&gt;autos = 0&lt;/font&gt;&lt;/font&gt;&lt;/li&gt;&lt;li&gt;&lt;font color=&quot;#000000&quot;&gt;&lt;font style=&quot;font-size: 21px;&quot;&gt;celdas = [8]&lt;/font&gt;&lt;/font&gt;&lt;/li&gt;&lt;/ul&gt;" style="ellipse;whiteSpace=wrap;html=1;aspect=fixed;direction=west;fillColor=#dae8fc;strokeColor=#6c8ebf;align=center;" parent="1" vertex="1">
          <mxGeometry x="-1128" y="691.04" width="239" height="239" as="geometry" />
        </mxCell>
        <mxCell id="UsIp33hUrjIsSwBAMLS7-4" value="&lt;font color=&quot;#000000&quot; style=&quot;font-size: 25px; background-color: rgb(204, 204, 255);&quot;&gt;Transporte = Listo&lt;/font&gt;" style="edgeLabel;html=1;align=center;verticalAlign=middle;resizable=0;points=[];fontSize=11;fontFamily=Helvetica;fontColor=default;" parent="1" vertex="1" connectable="0">
          <mxGeometry x="-473.0000000000009" y="714" as="geometry">
            <mxPoint x="-262" y="65" as="offset" />
          </mxGeometry>
        </mxCell>
        <mxCell id="VymyQt9emQp_qHSCCe4n-1" value="&lt;font color=&quot;#000000&quot; style=&quot;font-size: 25px; background-color: rgb(204, 204, 255);&quot;&gt;i = 0&lt;/font&gt;" style="edgeLabel;html=1;align=center;verticalAlign=middle;resizable=0;points=[];fontSize=11;fontFamily=Helvetica;fontColor=default;" vertex="1" connectable="0" parent="1">
          <mxGeometry x="-479.0000000000009" y="768" as="geometry">
            <mxPoint x="-262" y="65" as="offset" />
          </mxGeometry>
        </mxCell>
        <mxCell id="VymyQt9emQp_qHSCCe4n-4" value="&lt;font color=&quot;#000000&quot;&gt;&lt;span style=&quot;font-size: 25px; background-color: rgb(204, 204, 255);&quot;&gt;autos &amp;lt; 8&lt;/span&gt;&lt;/font&gt;" style="edgeLabel;html=1;align=center;verticalAlign=middle;resizable=0;points=[];fontSize=11;fontFamily=Helvetica;fontColor=default;" vertex="1" connectable="0" parent="1">
          <mxGeometry x="-17.00000000000091" y="294" as="geometry">
            <mxPoint x="-262" y="65" as="offset" />
          </mxGeometry>
        </mxCell>
        <mxCell id="VymyQt9emQp_qHSCCe4n-9" style="edgeStyle=orthogonalEdgeStyle;shape=connector;rounded=1;orthogonalLoop=1;jettySize=auto;html=1;exitX=1;exitY=1;exitDx=0;exitDy=0;entryX=0;entryY=0;entryDx=0;entryDy=0;labelBackgroundColor=default;strokeColor=#000000;strokeWidth=4;fontFamily=Helvetica;fontSize=11;fontColor=default;endArrow=classic;" edge="1" parent="1" source="VymyQt9emQp_qHSCCe4n-5" target="2LraSfVMXyIJ4m1ZJqNp-1">
          <mxGeometry relative="1" as="geometry" />
        </mxCell>
        <mxCell id="VymyQt9emQp_qHSCCe4n-5" value="&lt;font style=&quot;font-size: 21px;&quot; color=&quot;#000000&quot;&gt;&lt;font style=&quot;font-size: 21px;&quot;&gt;Estado 3:&lt;/font&gt;&lt;span style=&quot;font-size: 30px;&quot;&gt; &lt;/span&gt;&lt;font style=&quot;font-size: 35px;&quot;&gt;liberar&lt;/font&gt;&lt;br&gt;&lt;ul&gt;&lt;li&gt;&lt;span style=&quot;&quot;&gt;celda [i+1] = asigna&lt;/span&gt;&lt;/li&gt;&lt;li&gt;autos = i+1&lt;/li&gt;&lt;/ul&gt;&lt;/font&gt;" style="ellipse;whiteSpace=wrap;html=1;aspect=fixed;direction=west;fillColor=#dae8fc;strokeColor=#6c8ebf;align=center;" vertex="1" parent="1">
          <mxGeometry x="-189" y="1054" width="286" height="286" as="geometry" />
        </mxCell>
        <mxCell id="VymyQt9emQp_qHSCCe4n-7" value="&lt;font color=&quot;#000000&quot;&gt;&lt;span style=&quot;font-size: 25px; background-color: rgb(204, 204, 255);&quot;&gt;autos &amp;gt; 0&lt;/span&gt;&lt;/font&gt;" style="edgeLabel;html=1;align=center;verticalAlign=middle;resizable=0;points=[];fontSize=11;fontFamily=Helvetica;fontColor=default;" vertex="1" connectable="0" parent="1">
          <mxGeometry x="-61.00000000000091" y="1156" as="geometry">
            <mxPoint x="-262" y="65" as="offset" />
          </mxGeometry>
        </mxCell>
      </root>
    </mxGraphModel>
  </diagram>
</mxfile>
